HIERARCHY
ROOT SpineBase
{
  OFFSET 0.000000 0.000000 0.000000
  CHANNELS 6 Xposition Yposition Zposition Zrotation Xrotation Yrotation
  JOINT SpineMid
  {
    OFFSET -0.000000 26.871258 0.000000
    CHANNELS 3 Zrotation Xrotation Yrotation
    JOINT SpineShoulder
    {
      OFFSET -0.206000 20.047202 -0.536188
      CHANNELS 3 Zrotation Xrotation Yrotation
      JOINT Neck
      {
        OFFSET -0.113004 6.665983 -0.448491
        CHANNELS 3 Zrotation Xrotation Yrotation
        JOINT Head
        {
          OFFSET -2.773558 12.371009 0.383309
          CHANNELS 3 Zrotation Xrotation Yrotation
          End Site
          {
            OFFSET 0 0 0
          }
        }
      }
      JOINT ShoulderLeft
      {
        OFFSET -13.279817 -4.868240 4.024838
        CHANNELS 3 Zrotation Xrotation Yrotation
        JOINT ElbowLeft
        {
          OFFSET -0.777378 -24.433878 1.887123
          CHANNELS 3 Zrotation Xrotation Yrotation
          JOINT WristLeft
          {
            OFFSET -1.013955 -19.989237 -6.006311
            CHANNELS 3 Zrotation Xrotation Yrotation
            JOINT HandLeft
            {
              OFFSET 0.493030 -4.317318 -1.043635
              CHANNELS 3 Zrotation Xrotation Yrotation
              JOINT HandTipLeft
              {
                OFFSET -0.572114 -6.471220 -1.245651
                CHANNELS 3 Zrotation Xrotation Yrotation
                End Site
                {
                  OFFSET 0 0 0
                }
              }
              JOINT ThumbLeft
              {
                OFFSET -2.954360 1.091585 -0.815712
                CHANNELS 3 Zrotation Xrotation Yrotation
                End Site
                {
                  OFFSET 0 0 0
                }
              }
            }
          }
        }
      }
      JOINT ShoulderRight
      {
        OFFSET 10.550361 -2.400320 -7.513155
        CHANNELS 3 Zrotation Xrotation Yrotation
        JOINT ElbowRight
        {
          OFFSET 6.079673 -21.333803 -3.021134
          CHANNELS 3 Zrotation Xrotation Yrotation
          JOINT WristRight
          {
            OFFSET -3.119952 -19.533198 -6.424773
            CHANNELS 3 Zrotation Xrotation Yrotation
            JOINT HandRight
            {
              OFFSET -1.826612 -6.316566 -0.912073
              CHANNELS 3 Zrotation Xrotation Yrotation
              JOINT HandTipRight
              {
                OFFSET -0.823498 -5.621809 -1.870172
                CHANNELS 3 Zrotation Xrotation Yrotation
                End Site
                {
                  OFFSET 0 0 0
                }
              }
              JOINT ThumbRight
              {
                OFFSET -2.583040 0.284370 -1.061557
                CHANNELS 3 Zrotation Xrotation Yrotation
                End Site
                {
                  OFFSET 0 0 0
                }
              }
            }
          }
        }
      }
    }
  }
  JOINT HipLeft
  {
    OFFSET -5.593004 0.144414 -0.785972
    CHANNELS 3 Zrotation Xrotation Yrotation
    JOINT KneeLeft
    {
      OFFSET 3.111351 -29.848971 1.549465
      CHANNELS 3 Zrotation Xrotation Yrotation
      JOINT AnkleLeft
      {
        OFFSET 5.100306 -35.210593 5.560883
        CHANNELS 3 Zrotation Xrotation Yrotation
        JOINT FootLeft
        {
          OFFSET -4.073215 -1.596174 -10.592725
          CHANNELS 3 Zrotation Xrotation Yrotation
          End Site
          {
            OFFSET 0 0 0
          }
        }
      }
    }
  }
  JOINT HipRight
  {
    OFFSET 4.937174 1.459565 -5.285210
    CHANNELS 3 Zrotation Xrotation Yrotation
    JOINT KneeRight
    {
      OFFSET 7.563573 -30.240565 -3.068535
      CHANNELS 3 Zrotation Xrotation Yrotation
      JOINT AnkleRight
      {
        OFFSET 6.218080 -33.278946 3.497666
        CHANNELS 3 Zrotation Xrotation Yrotation
        JOINT FootRight
        {
          OFFSET -3.365187 -2.849044 -8.689853
          CHANNELS 3 Zrotation Xrotation Yrotation
          End Site
          {
            OFFSET 0 0 0
          }
        }
      }
    }
  }
}
MOTION
Frames: 6
Frame Time: 0.033333
38.317595 70.468502 367.214334 0.000000 0.000000 23.135604 -0.000000 0.000000 -23.135604 -0.000000 0.000000 0.000000 -0.000000 0.000000 0.000000 0.000000 0.000000 0.000000 -0.000000 0.000000 0.000000 -0.000000 0.000000 0.000000 -0.000000 0.000000 0.000000 -0.000000 0.000000 0.000000 0.000000 0.000000 0.000000 0.000000 0.000000 0.000000 -0.000000 0.000000 0.000000 -0.000000 0.000000 0.000000 -0.000000 0.000000 0.000000 -0.000000 0.000000 0.000000 0.000000 0.000000 0.000000 0.000000 0.000000 0.000000 -0.000000 0.000000 -23.135604 -0.000000 0.000000 0.000000 -0.000000 0.000000 0.000000 0.000000 0.000000 0.000000 -0.000000 0.000000 -23.135604 -0.000000 0.000000 0.000000 -0.000000 0.000000 0.000000 0.000000 0.000000 0.000000
38.230117 70.448456 367.241125 -0.125372 0.020897 23.114063 0.107105 -0.068436 -23.113976 -0.000000 0.000000 0.000000 -0.000000 0.000000 0.000000 0.000000 0.000000 0.000000 -0.000000 0.000000 0.000000 -0.000000 0.000000 0.000000 -1.329225 0.037730 0.326483 -0.208957 0.747661 -0.089095 0.000000 0.000000 0.000000 0.000000 0.000000 0.000000 -1.508169 -0.517409 0.059588 4.897507 -1.221255 -0.899325 1.444990 0.368552 0.506995 -3.112411 -4.589336 0.724235 0.000000 0.000000 0.000000 0.000000 0.000000 0.000000 0.107105 -0.068436 -23.113976 -0.000000 0.000000 0.000000 1.592533 -3.676995 -1.505831 0.000000 0.000000 0.000000 0.107105 -0.068436 -23.113976 -0.000000 0.000000 0.000000 1.360488 -5.444187 2.794110 0.000000 0.000000 0.000000
38.172127 70.431685 367.255714 -0.203167 0.051702 23.078703 0.166641 -0.127205 -23.078427 -0.000000 0.000000 0.000000 -0.000000 0.000000 0.000000 0.000000 0.000000 0.000000 -0.000000 0.000000 0.000000 -0.000000 0.000000 0.000000 -2.249543 0.061877 0.553302 -0.313265 1.296250 -0.149048 0.000000 0.000000 0.000000 0.000000 0.000000 0.000000 -2.464110 -0.876174 0.081048 7.797208 -1.794277 -1.428347 1.860478 0.600621 0.828076 -4.738627 -7.934282 1.398777 0.000000 0.000000 0.000000 0.000000 0.000000 0.000000 0.166641 -0.127205 -23.078427 -0.000000 0.000000 0.000000 3.116106 -7.517911 -2.562472 0.000000 0.000000 0.000000 0.166641 -0.127205 -23.078427 -0.000000 0.000000 0.000000 2.833283 -10.304520 5.480688 0.000000 0.000000 0.000000
38.143627 70.418187 367.258102 -0.233475 0.092409 23.029367 0.178718 -0.176380 -23.028903 -0.000000 0.000000 0.000000 -0.000000 0.000000 0.000000 0.000000 0.000000 0.000000 -0.000000 0.000000 0.000000 -0.000000 0.000000 0.000000 -2.754354 0.077168 0.678356 -0.339447 1.652236 -0.187926 0.000000 0.000000 0.000000 0.000000 0.000000 0.000000 -2.887283 -1.081321 0.074180 8.930936 -1.776044 -1.655110 1.497229 0.633444 1.032024 -5.282564 -10.271039 1.922821 0.000000 0.000000 0.000000 0.000000 0.000000 0.000000 0.178718 -0.176380 -23.028903 -0.000000 0.000000 0.000000 4.619416 -11.521446 -3.100031 0.000000 0.000000 0.000000 0.178718 -0.176380 -23.028903 -0.000000 0.000000 0.000000 4.203076 -14.160994 7.791498 0.000000 0.000000 0.000000
38.144615 70.407964 367.248288 -0.216363 0.143016 22.965888 0.143412 -0.216100 -22.965348 -0.000000 0.000000 0.000000 -0.000000 0.000000 0.000000 0.000000 0.000000 0.000000 -0.000000 0.000000 0.000000 -0.000000 0.000000 0.000000 -2.840252 0.086243 0.700555 -0.300046 1.819402 -0.210884 0.000000 0.000000 0.000000 0.000000 0.000000 0.000000 -2.788925 -1.136549 0.043820 8.402384 -1.189674 -1.597480 0.369424 0.463852 1.134184 -4.890226 -11.768168 2.264572 0.000000 0.000000 0.000000 0.000000 0.000000 0.000000 0.143412 -0.216100 -22.965348 -0.000000 0.000000 0.000000 6.171941 -15.695500 -3.021421 0.000000 0.000000 0.000000 0.143412 -0.216100 -22.965348 -0.000000 0.000000 0.000000 5.226250 -16.727227 9.455393 0.000000 0.000000 0.000000
38.175093 70.401014 367.226273 -0.151874 0.203524 22.888099 0.060760 -0.246568 -22.887698 -0.000000 0.000000 0.000000 0.794638 0.308930 0.042428 0.000000 0.000000 0.000000 -0.000000 0.000000 0.000000 -0.000000 0.000000 0.000000 -2.506211 0.089540 0.619537 -0.193434 1.797934 -0.220720 0.000000 0.000000 0.000000 0.000000 0.000000 0.000000 -2.171455 -1.043710 -0.009747 6.195570 -0.023152 -1.230261 -1.722507 0.132777 1.102069 -3.495456 -12.502035 2.432992 0.000000 0.000000 0.000000 0.000000 0.000000 0.000000 0.060760 -0.246568 -22.887698 -0.000000 0.000000 0.000000 7.873817 -20.054035 -2.185501 0.000000 0.000000 0.000000 0.729796 0.212938 -22.761146 -0.439180 -0.682556 -0.128972 5.704353 -17.861290 10.264942 0.000000 0.000000 0.000000
